<?xml version="1.0" encoding="UTF-8"?>
<svg xmlns="http://www.w3.org/2000/svg" viewBox="0 0 512 512" width="512" height="512">
<path d="M242.53 86.98C305.75 82.46 366.2 113.2 400.04 166.81C411.35 184.73 417.87 204.38 422.11 224.68C425.21 239.53 426.9 257.18 424.22 272.37C423.49 276.5 424.09 281.02 422.98 285C419.31 298.09 416.8 312.18 410.86 324.63C397.96 351.66 378.9 376.45 354.13 394C347.63 398.61 340.72 402.15 333.79 406.06C313.85 417.34 290.96 422.98 268.16 425.07C247.39 426.97 220.24 423.19 201.42 416C189.36 411.39 177.73 406.64 166.54 399.9C128.41 376.91 101.75 337.37 91 295.27C87.59 281.91 86.55 267.61 86.74 253.66C87.9 167.39 155.78 93.2 242.53 86.98Z" fill="#ffcc70" fill-rule="evenodd" stroke="#ffcc70" stroke-width="0.25" stroke-linejoin="round"/>
</svg>